<svg fill="none" height="512" viewBox="0 0 24 24" width="512" xmlns="http://www.w3.org/2000/svg" xmlns:xlink="http://www.w3.org/1999/xlink"><linearGradient id="paint0_linear_339_7538" gradientUnits="userSpaceOnUse" x1="12" x2="12" y1="2" y2="22"><stop offset="0" stop-color="#67b26f"/><stop offset="1" stop-color="#4ca2cd"/></linearGradient><path d="m16.19 2h-8.38c-3.64 0-5.81 2.17-5.81 5.81v8.38c0 3.64 2.17 5.81 5.81 5.81h8.38c3.64 0 5.81-2.17 5.81-5.81v-8.38c0-3.64-2.17-5.81-5.81-5.81zm-6.22 12.9-2.25 2.25c-.15.15-.34.22-.53.22s-.39-.07-.53-.22l-.75-.75c-.3-.29-.3-.77 0-1.06.29-.29.76-.29 1.06 0l.22.22 1.72-1.72c.29-.29.76-.29 1.06 0 .29.29.29.77 0 1.06zm0-7-2.25 2.25c-.15.15-.34.22-.53.22s-.39-.07-.53-.22l-.75-.75c-.3-.29-.3-.77 0-1.06.29-.29.76-.29 1.06 0l.22.22 1.72-1.72c.29-.29.76-.29 1.06 0 .29.29.29.77 0 1.06zm7.59 8.72h-5.25c-.41 0-.75-.34-.75-.75s.34-.75.75-.75h5.25c.42 0 .75.34.75.75s-.33.75-.75.75zm0-7h-5.25c-.41 0-.75-.34-.75-.75s.34-.75.75-.75h5.25c.42 0 .75.34.75.75s-.33.75-.75.75z" fill="url(#paint0_linear_339_7538)"/></svg>